<svg id="audios_icon" enable-background="new 0 0 513.005 513.005" height="512" viewBox="0 0 513.005 513.005" width="512" xmlns="http://www.w3.org/2000/svg" xmlns:xlink="http://www.w3.org/1999/xlink"><linearGradient id="SVGID_1_" gradientUnits="userSpaceOnUse" x1="0" x2="513.005" y1="256.503" y2="256.503"><stop offset="0" stop-color="#9dd6fc"/><stop offset="1" stop-color="#d17ff7"/></linearGradient><path d="m511.739 13.79c-3.858-10.351-15.381-15.614-25.727-11.752l-143 53.322c-7.824 2.917-13.012 10.389-13.012 18.739v251.27c-67.445-54.145-170.421-4.846-169.999 82.409 5.763 139.29 204.252 139.26 209.999-.001v-319.79l129.987-48.471c10.35-3.858 15.612-15.377 11.752-25.726zm-246.739 458.987c-35.841 0-65-29.159-65-65 3.571-86.231 126.442-86.206 130 .001 0 35.84-29.159 64.999-65 64.999zm-102.816-167.899c-7.789 7.834-20.453 7.87-28.284.083-7.833-7.788-7.87-20.451-.083-28.284 29.405-29.577 68.016-48.648 108.721-53.699 26.455-2.223 31.119 35.387 4.926 39.695-31.868 3.955-62.154 18.943-85.28 42.205zm84.028-202.09c-82.479 5.008-157.463 41.652-211.141 103.185-7.286 8.348-19.93 9.162-28.219 1.924-8.323-7.261-9.185-19.896-1.924-28.219 59.949-69.158 147.251-111.587 238.86-116.816 11.029-.699 20.506 7.726 21.175 18.751.67 11.025-7.726 20.506-18.751 21.175zm-.553 79.821c-57.058 4.749-109.569 30.558-147.861 72.671-7.45 8.189-20.104 8.758-28.253 1.343-8.172-7.432-8.773-20.08-1.343-28.253 45.122-49.624 106.966-80.031 174.139-85.622 11.026-.937 20.674 7.265 21.59 18.271.917 11.008-7.265 20.674-18.272 21.59z" fill="url(#SVGID_1_)"/></svg>