<?xml version="1.0" encoding="iso-8859-1"?>
<!-- Generator: Adobe Illustrator 19.0.0, SVG Export Plug-In . SVG Version: 6.00 Build 0)  -->
<svg version="1.1" id="Layer_1" xmlns="http://www.w3.org/2000/svg" xmlns:xlink="http://www.w3.org/1999/xlink" x="0px" y="0px"
	 viewBox="0 0 492 492" style="enable-background:new 0 0 492 492;" xml:space="preserve">
<path style="fill:#0EE0B8;" d="M402,0H90C76.4,0,66,10.4,66,24v320l154.4,148H402c13.6,0,24-10.4,24-24V24C426,10.4,415.6,0,402,0z"
	/>
<path style="fill:#398FC9;" d="M402,0H90C76.4,0,66,10.4,66,24v320l154.4,148H402c13.6,0,24-10.4,24-24V24C426,10.4,415.6,0,402,0z"
	/>
<path style="fill:#1E7FC1;" d="M426,383.2V24c0-13.6-10.4-24-24-24H90C76.4,0,66,10.4,66,24"/>
<path style="fill:#07709E;" d="M426,383.2V24c0-13.6-10.4-24-24-24H205.2"/>
<path style="fill:#1E7FC1;" d="M200.4,348.8v120c0,1.6,0,3.2,0.8,4.8l18.4,17.6c1.6,0,2.4,0.8,4,0.8h125.6L200.4,348.8L200.4,348.8z
	"/>
<path style="fill:#07709E;" d="M200.4,348.8v120c0,1.6,0,3.2,0.8,4.8l18.4,17.6c1.6,0,2.4,0.8,4,0.8h64l-72-120L200.4,348.8z"/>
<path style="fill:#FFFFFF;" d="M220.4,491.2L220.4,491.2v-124c0-13.6-10.4-24-24-24H66L220.4,491.2z"/>
<polyline style="fill:#D2F3FF;" points="66,344 220.4,491.2 220.4,491.2 220.4,368 "/>
<path style="fill:#3DB8FC;" d="M77.2,344L77.2,344V24c0-13.6,10.4-24,24-24H90.8c-13.6,0-24,10.4-24,24v320l0,0H77.2z"/>
<g>
	<path style="fill:#FFFFFF;" d="M224.4,211.2h-56v52h63.2v16H150V134.4h78.4v16h-60V196h56V211.2z"/>
	<path style="fill:#FFFFFF;" d="M231.6,283.2H150c-2.4,0-4-1.6-4-4V134.4c0-2.4,1.6-4,4-4h78.4c2.4,0,4,1.6,4,4v16c0,2.4-1.6,4-4,4
		h-56V192h52c2.4,0,4,1.6,4,4v15.2c0,2.4-1.6,4-4,4h-52v44h59.2c2.4,0,4,1.6,4,4v16C235.6,281.6,233.2,283.2,231.6,283.2z
		 M154,275.2h73.6v-8h-59.2c-2.4,0-4-1.6-4-4v-52c0-2.4,1.6-4,4-4h52V200h-52c-2.4,0-4-1.6-4-4v-45.6c0-2.4,1.6-4,4-4h56v-8H154
		V275.2z"/>
	<path style="fill:#FFFFFF;" d="M254.8,203.2c0-10.4,0-19.2-0.8-28h16.8l0.8,17.6h0.8c4.8-9.6,17.6-19.2,34.4-19.2
		c14.4,0,36.8,8.8,36.8,44V280h-19.2v-60c0-16.8-6.4-30.4-24-30.4c-12.8,0-22.4,8.8-25.6,19.2c-0.8,2.4-1.6,5.6-1.6,8.8V280H254
		v-76.8H254.8z"/>
	<path style="fill:#FFFFFF;" d="M343.6,283.2h-19.2c-2.4,0-4-1.6-4-4v-60c0-17.6-6.4-26.4-20-26.4c-11.2,0-19.2,8-21.6,16.8
		c-0.8,1.6-0.8,4-0.8,7.2v62.4c0,2.4-1.6,4-4,4h-19.2c-2.4,0-4-1.6-4-4v-76c0-11.2,0-20-0.8-28c0-0.8,0-2.4,0.8-3.2s1.6-1.6,3.2-1.6
		h16.8c2.4,0,4,1.6,4,4l0.8,6.4c7.2-7.2,17.6-12.8,31.2-12.8c19.2,0,40.8,12.8,40.8,48v62.4C347.6,281.6,346,283.2,343.6,283.2z
		 M328.4,275.2h11.2v-58.4c0-37.6-24.8-40-32.8-40c-16,0-26.4,8.8-31.2,17.6c-1.6,3.2-8,1.6-8-1.6l-0.8-13.6H258
		c0.8,7.2,0.8,14.4,0.8,24v72H270v-58.4c0-4,0.8-7.2,1.6-10.4c4-12.8,16-22.4,28.8-22.4c17.6,0,28,12.8,28,34.4V275.2z"/>
</g>
<path style="opacity:0.1;enable-background:new    ;" d="M242,294.4v-16c0-2.4-1.6-4-4-4h-59.2v-44h52c2.4,0,4-1.6,4-4v-15.2
	c0-2.4-1.6-4-4-4h-52v-37.6h56c2.4,0,4-1.6,4-4v-16c0-2.4-1.6-4-4-4h-78.4c-2.4,0-4,1.6-4,4v144.8c0,2.4,1.6,4,4,4H238
	C240.4,298.4,242,296,242,294.4z"/>
<path style="opacity:0.1;enable-background:new    ;" d="M314,183.2c-14.4,0-24.8,5.6-31.2,12.8l-0.8-6.4c0-2.4-1.6-4-4-4h-16.8
	c-0.8,0-2.4,0.8-3.2,1.6s-0.8,1.6-0.8,3.2c0.8,8,0.8,16,0.8,28v76c0,2.4,1.6,4,4,4h19.2c2.4,0,4-1.6,4-4V232c0-3.2,0-5.6,0.8-8
	c2.4-8,10.4-16.8,21.6-16.8c13.6,0,20,8.8,20,26.4v60c0,2.4,1.6,4,4,4h19.2c2.4,0,4-1.6,4-4v-62.4C354.8,196,332.4,183.2,314,183.2z
	"/>
<g>
</g>
<g>
</g>
<g>
</g>
<g>
</g>
<g>
</g>
<g>
</g>
<g>
</g>
<g>
</g>
<g>
</g>
<g>
</g>
<g>
</g>
<g>
</g>
<g>
</g>
<g>
</g>
<g>
</g>
</svg>
