<svg viewBox="-3 0 471 472" xmlns="http://www.w3.org/2000/svg"><path d="m256.5 256h102.28125c21.023438-.347656 38.929688 15.207031 41.527344 36.070312 1.109375 11.238282-2.585938 22.421876-10.167969 30.789063s-18.347656 13.140625-29.640625 13.140625c57.441406 0 104-16 104-80v-184c0-13.253906-10.746094-24-24-24h-184c-17.671875 0-32 14.328125-32 32v144c0 17.671875 14.328125 32 32 32zm0 0" fill="#e32210"/><path d="m320.5 88c-8.835938 0-16 7.164062-16 16v40c0 8.835938 7.164062 16 16 16h8c8.835938 0 16 7.164062 16 16v24c0 8.835938 7.164062 16 16 16s16-7.164062 16-16v-24c0-8.835938 7.164062-16 16-16h8v-72zm0 0" fill="#fff5e0"/><path d="m432.5 168v-88h-32v88zm0 0" fill="#d9d9d9"/><path d="m256.5 48c-17.671875 0-32 14.328125-32 32v128h32c13.253906 0 24-10.746094 24-24v-136zm0 0" fill="#c21d0e"/><path d="m288.5 200h32v16h-32zm0 0" fill="#fff5e0"/><path d="m248.5 0h-224c-13.253906 0-24 10.746094-24 24v176c0 64 46.558594 80 104 80-11.292969.003906-22.0625-4.769531-29.648438-13.136719-7.582031-8.367187-11.277343-19.550781-10.167968-30.792969 2.597656-20.867187 20.507812-36.421874 41.535156-36.070312h142.28125c13.253906 0 24-10.746094 24-24v-152c0-13.253906-10.746094-24-24-24zm0 0" fill="#1cc8eb"/><path d="m288.5 400-40.847656 20.425781c-9.539063 4.765625-20.765625 4.765625-30.304688 0l-40.847656-20.425781c-17.671875 0-32 14.328125-32 32v40h176v-40c0-17.671875-14.328125-32-32-32zm0 0" fill="#d9d9d9"/><path d="m165.085938 278.929688c-6.792969 18.0625-6.015626 38.097656 2.15625 55.578124 8.171874 17.484376 23.042968 30.933594 41.257812 37.308594v4.183594c0 17.671875-14.328125 24-32 24l40.847656 20.425781c9.539063 4.765625 20.765625 4.765625 30.304688 0l40.847656-20.425781c-17.671875 0-32-6.328125-32-24v-4.183594c29.566406-10.421875 48.984375-38.785156 48-70.121094-.054688-1.917968.089844-3.808593-.128906-5.695312h-95.871094c-16.109375 0-31.621094-6.097656-43.414062-17.070312zm0 0" fill="#fff5e0"/><path d="m165.085938 278.929688c11.792968 10.972656 27.304687 17.070312 43.414062 17.070312h95.832031c.039063-16.957031-6.667969-33.230469-18.644531-45.238281-11.972656-12.003907-28.230469-18.753907-45.1875-18.761719h-96c-.003906 17.832031 7.460938 34.851562 20.585938 46.929688zm0 0" fill="#a3771d"/><path d="m176.5 88h-8c-8.835938 0-16-7.164062-16-16v-24c0-8.835938-7.164062-16-16-16s-16 7.164062-16 16v24c0 8.835938-7.164062 16-16 16h-8v72h80c8.835938 0 16-7.164062 16-16v-40c0-8.835938-7.164062-16-16-16zm0 0" fill="#fff5e0"/><path d="m96.5 80h-32v88h32zm0 0" fill="#d9d9d9"/><path d="m208.5 24h-16v8h-8v16h8v8h16v-8h8v-16h-8zm0 0" fill="#fff5e0"/></svg>