<?xml version="1.0" encoding="iso-8859-1"?>
<!-- Generator: Adobe Illustrator 19.0.0, SVG Export Plug-In . SVG Version: 6.00 Build 0)  -->
<svg version="1.1" id="Layer_1" xmlns="http://www.w3.org/2000/svg" xmlns:xlink="http://www.w3.org/1999/xlink" x="0px" y="0px"
	 viewBox="0 0 488.005 488.005" style="enable-background:new 0 0 488.005 488.005;" xml:space="preserve">
<g>
	
		<rect x="210.897" y="209.642" transform="matrix(0.3176 0.9482 -0.9482 0.3176 397.8835 -64.8302)" style="fill:#7ED1B5;" width="66.174" height="68.766"/>
	<path style="fill:#7ED1B5;" d="M176.913,20.43C9.257,70.734-29.887,143.382,20.425,311.07
		c50.304,167.68,122.984,206.816,290.648,156.496c167.688-50.312,206.816-122.968,156.504-290.64
		C417.281,9.238,344.609-29.866,176.913,20.43z M382.761,285.782l-31.608,10.576l10.944,32.728
		c4.44,13.24-2.688,27.576-15.952,32.008c-2.888,0.968-5.808,1.384-8.672,1.32c-10.336-0.272-19.872-6.896-23.336-17.256
		l-10.96-32.736l-65.208,21.856l10.96,32.704c4.448,13.248-2.704,27.592-15.952,32.04c-2.888,0.952-5.816,1.368-8.672,1.288
		c-10.336-0.264-19.872-6.896-23.336-17.248l-10.96-32.728l-31.624,10.608c-2.872,0.952-5.816,1.368-8.688,1.288
		c-10.328-0.272-19.856-6.904-23.32-17.264c-4.44-13.232,2.688-27.576,15.952-32.024l31.632-10.584l-21.032-62.76l-31.616,10.592
		c-2.888,0.968-5.808,1.384-8.696,1.304c-10.32-0.256-19.848-6.88-23.32-17.264c-4.44-13.232,2.712-27.576,15.936-32l31.64-10.608
		l-10.96-32.704c-4.44-13.264,2.688-27.6,15.952-32.016c13.248-4.448,27.592,2.704,32.024,15.936l10.944,32.736l65.224-21.84
		l-10.976-32.72c-4.448-13.248,2.72-27.576,15.952-32.024c13.248-4.432,27.592,2.72,32.024,15.96l10.944,32.712l31.64-10.592
		c13.248-4.424,27.56,2.728,32,15.96c4.44,13.248-2.688,27.576-15.952,32.024l-31.616,10.576l21.016,62.784l31.632-10.608
		c13.24-4.432,27.576,2.704,32.016,15.96C403.161,267.014,396.009,281.358,382.761,285.782z"/>
</g>
<rect x="210.897" y="209.642" transform="matrix(0.3176 0.9482 -0.9482 0.3176 397.8835 -64.8302)" style="fill:#9DEACE;" width="66.174" height="68.766"/>
<polygon style="fill:#7ED1B5;" points="200.889,223.534 221.905,286.286 287.121,264.462 260.313,217.55 "/>
<g>
	<polygon style="fill:#5FB2A2;" points="200.889,223.534 221.905,286.286 287.121,264.462 241.257,257.574 	"/>
	<path style="fill:#5FB2A2;" d="M240.321,124.798c-2.8,5.752-3.448,12.56-1.256,19.096l4.08,12.168l6.896-2.32L240.321,124.798z"/>
	<path style="fill:#5FB2A2;" d="M127.161,162.694c-2.8,5.752-3.456,12.536-1.264,19.112l4.064,12.128l6.896-2.304L127.161,162.694z"
		/>
	<path style="fill:#5FB2A2;" d="M382.761,285.782l-31.608,10.576l6.88,20.584l24.72-8.288c13.256-4.424,20.4-18.768,15.968-32.024
		c-0.408-1.176-0.952-2.24-1.504-3.32C394.313,279.006,389.297,283.598,382.761,285.782z"/>
</g>
<path style="fill:#9DEACE;" d="M176.913,43.302C344.609-6.994,417.281,32.118,467.569,199.806
	c11.792,39.32,18.616,73.376,20.064,103.168c1.856-34.904-5.128-76.264-20.064-126.04C417.281,9.238,344.609-29.866,176.913,20.43
	C48.569,58.926-4.391,110.59,0.361,207.886C4.745,125.142,59.025,78.662,176.913,43.302z"/>
<g>
	<path style="fill:#5FB2A2;" d="M345.673,175.054l-31.616,10.576l6.896,20.56l24.72-8.264c13.256-4.448,20.392-18.776,15.952-32.024
		c-0.384-1.184-0.952-2.224-1.488-3.32C357.217,168.27,352.201,172.862,345.673,175.054z"/>
	<path style="fill:#5FB2A2;" d="M89.289,257.102c3.472,10.392,13,17.016,23.32,17.272c2.888,0.08,5.808-0.336,8.696-1.304
		l31.616-10.592l14.136,42.184l6.896-2.304l-21.032-62.76l-31.616,10.592c-2.888,0.968-5.808,1.384-8.696,1.304
		c-9.128-0.224-17.632-5.472-21.88-13.864C87.769,243.462,87.041,250.438,89.289,257.102z"/>
	<path style="fill:#5FB2A2;" d="M346.153,361.094c-2.888,0.968-5.808,1.384-8.672,1.32c-10.336-0.272-19.872-6.896-23.336-17.256
		l-10.96-32.736l-65.208,21.856l6.896,20.552l58.312-19.536l10.96,32.736c3.464,10.36,13,16.984,23.336,17.256
		c2.872,0.064,5.784-0.352,8.672-1.32c13.256-4.432,20.392-18.768,15.952-32.008l-1.264-3.784
		C357.977,354.07,352.849,358.846,346.153,361.094z"/>
	<path style="fill:#5FB2A2;" d="M232.985,399.022c-2.888,0.952-5.816,1.368-8.672,1.288c-10.336-0.264-19.872-6.896-23.336-17.248
		l-10.96-32.728l-31.624,10.608c-2.872,0.952-5.816,1.368-8.688,1.288c-9.136-0.248-17.632-5.496-21.88-13.864
		c-2.968,5.84-3.696,12.792-1.44,19.48c3.464,10.36,13,16.992,23.32,17.264c2.872,0.08,5.824-0.344,8.688-1.296l31.624-10.6
		l10.96,32.728c3.464,10.352,13,16.984,23.336,17.248c2.856,0.08,5.784-0.336,8.672-1.288c13.248-4.448,20.392-18.792,15.952-32.04
		l-1.256-3.768C244.801,391.982,239.681,396.766,232.985,399.022z"/>
	<path style="fill:#5FB2A2;" d="M273.657,415.798c-138.624,0-253.4-99.944-273.328-230.256c-1.76,34.824,5.224,76,20.088,125.528
		c50.304,167.68,122.984,206.816,290.648,156.496c110.576-33.168,165.216-76.088,175.208-149.512
		C435.585,377.758,359.161,415.798,273.657,415.798z"/>
</g>
<g>
</g>
<g>
</g>
<g>
</g>
<g>
</g>
<g>
</g>
<g>
</g>
<g>
</g>
<g>
</g>
<g>
</g>
<g>
</g>
<g>
</g>
<g>
</g>
<g>
</g>
<g>
</g>
<g>
</g>
</svg>
