<svg id="Filled" height="512" viewBox="0 0 512 512" width="512" xmlns="http://www.w3.org/2000/svg"><path d="m440 208c0-101.62-82.379-184-184-184a184.027 184.027 0 0 0 -80 349.742l59.418 106.077a16 16 0 0 0 13.959 8.181h13.246a16 16 0 0 0 13.959-8.181l59.418-106.077a184.01 184.01 0 0 0 104-165.742z" fill="#eb423f"/><circle cx="256" cy="208" fill="#e9eef2" r="136"/><circle cx="256" cy="136" fill="#3397e8" r="16"/><path d="m272 264v-48-32h-32-16v32h16v48h-16v32h16 32 16v-32z" fill="#3397e8"/><path d="m256 16a192.024 192.024 0 0 0 -85.764 363.823l58.2 103.906a24.026 24.026 0 0 0 20.941 12.271h13.246a24.022 24.022 0 0 0 20.939-12.271l58.2-103.906a192.012 192.012 0 0 0 106.238-171.823c0-105.869-86.131-192-192-192zm148.343 286.753a176.5 176.5 0 0 1 -71.825 63.787 7.989 7.989 0 0 0 -3.5 3.293l-59.418 106.077a8.006 8.006 0 0 1 -6.979 4.09h-13.244a8.009 8.009 0 0 1 -6.98-4.09l-59.418-106.077a7.992 7.992 0 0 0 -3.5-3.293 175.965 175.965 0 0 1 76.521-334.54c97.047 0 176 78.954 176 176a175.387 175.387 0 0 1 -27.657 94.753z"/><path d="m256 64c-79.4 0-144 64.6-144 144s64.6 144 144 144 144-64.6 144-144-64.6-144-144-144zm0 272a128 128 0 1 1 128-128 128.144 128.144 0 0 1 -128 128z"/><path d="m256 160a24 24 0 1 0 -24-24 24.027 24.027 0 0 0 24 24zm0-32a8 8 0 1 1 -8 8 8.009 8.009 0 0 1 8-8z"/><path d="m288 256h-8v-72a8 8 0 0 0 -8-8h-48a8 8 0 0 0 -8 8v32a8 8 0 0 0 8 8h8v32h-8a8 8 0 0 0 -8 8v32a8 8 0 0 0 8 8h64a8 8 0 0 0 8-8v-32a8 8 0 0 0 -8-8zm-8 32h-48v-16h8a8 8 0 0 0 8-8v-48a8 8 0 0 0 -8-8h-8v-16h32v72a8 8 0 0 0 8 8h8z"/></svg>