<svg id="Layer_1" enable-background="new 0 0 512 512" height="512" viewBox="0 0 512 512" width="512" xmlns="http://www.w3.org/2000/svg"><g><path d="m256 22c-135.31 0-245 109.69-245 245 0 78.492 36.916 148.357 94.328 193.196h301.344c57.412-44.839 94.328-114.704 94.328-193.196 0-135.31-109.69-245-245-245z" fill="#90d8f9"/><path d="m501 267c0-24.982-3.749-49.086-10.698-71.792-4.857-1.971-10.167-3.058-15.731-3.058-22.676 0-41.345 18.114-41.856 40.867-.043 1.877-1.49 3.449-3.363 3.579-3.817.266-7.393 1.634-10.368 3.861-1.685 1.262-4.06.747-5.243-.995-4.198-6.185-11.285-10.249-19.324-10.249-8.731 0-16.342 4.793-20.346 11.891-1.11 1.968-3.621 2.548-5.458 1.232-3.049-2.186-6.789-3.468-10.829-3.455-9.708.03-17.916 7.817-18.425 17.512-.56 10.675 7.93 19.507 18.483 19.507h142.981c.106-2.957.177-5.92.177-8.9z" fill="#b1e4f9"/><path d="m267.27 121.776c-5.163-.016-9.944 1.623-13.84 4.416-2.347 1.682-5.556.941-6.975-1.574-5.117-9.071-14.844-15.197-26.001-15.197-10.273 0-19.33 5.194-24.695 13.098-1.511 2.226-4.546 2.884-6.7 1.272-3.801-2.846-8.372-4.595-13.25-4.934-2.393-.167-4.243-2.175-4.297-4.574-.627-27.891-22.608-50.315-49.977-52.098-39.514 25.994-71.051 63.109-90.166 106.899h235.826c13.486 0 24.336-11.286 23.62-24.928-.65-12.39-11.139-22.341-23.545-22.38z" fill="#b1e4f9"/><path d="m153.6 287.241v-63.462h31.196v52.822z" fill="#ffdd40"/><path d="m354.931 287.241v-63.462h-31.196v52.822z" fill="#ffdd40"/><path d="m174.233 256.967c-10.12 3.452-20.633-4.071-20.633-14.763v45.037l31.195-10.64v-34.396c.001 6.674-4.245 12.608-10.562 14.762z" fill="#ffb332"/><path d="m334.298 256.967c-6.316-2.155-10.563-8.089-10.563-14.763v34.396l31.196 10.64v-45.037c0 10.694-10.514 18.216-20.633 14.764z" fill="#ffb332"/><path d="m310.395 204.696 13.34 20.144h31.196l13.34-20.144z" fill="#ffc839"/><path d="m343.208 223.122-5.772-8.715c-2.754-4.159.228-9.711 5.216-9.711h-32.258l13.34 20.144h21.18c-.664-.452-1.249-1.028-1.706-1.718z" fill="#ffb332"/><g><path d="m339.333 115.57c-4.142 0-7.5-3.357-7.5-7.5v-26.212c0-4.143 3.358-7.5 7.5-7.5s7.5 3.357 7.5 7.5v26.212c0 4.143-3.358 7.5-7.5 7.5z" fill="#ffb332"/></g><g><path d="m339.333 64.065c-4.142 0-7.5-3.357-7.5-7.5v-20.718c0-4.142 3.358-7.5 7.5-7.5s7.5 3.358 7.5 7.5v20.719c0 4.142-3.358 7.499-7.5 7.499z" fill="#ffb332"/></g><path d="m233.479 259.508-123.231 41.343c-3.698 1.24-6.19 4.704-6.19 8.605v149.739c41.761 33.06 94.544 52.805 151.942 52.805v-256.169c-7.656 0-15.262 1.242-22.521 3.677z" fill="#1e2f59"/><path d="m401.753 300.851-123.231-41.343c-7.259-2.435-14.865-3.677-22.521-3.677v256.169c14.593 0 28.886-1.283 42.777-3.729l45.07-12.506c23.284-8.949 44.861-21.342 64.095-36.569v-149.74c-.001-3.9-2.493-7.365-6.19-8.605z" fill="#3c5082"/><path d="m256 255.831v256.169c14.593 0 28.886-1.283 42.777-3.729l26.171-7.262c-5.158-2.614-6.416-9.493-6.416-9.493s0-65.5 0-84 7.419-19.119 7.419-19.119c-10.997-4.953-10.669-22.881-10.669-22.881s0-56.5 0-72.25 21.34-14.266 21.34-14.266l-58.1-19.492c-7.259-2.435-14.866-3.677-22.522-3.677z" fill="#2d3c6b"/><path d="m407.942 400.65-25.901-6.56c-4.019-1.015-8.095 1.415-9.112 5.43s1.414 8.095 5.429 9.111l29.583 7.492v-15.473z" fill="#ffdd40"/><path d="m256 310.343v29.73l151.942 44.708v-26.787z" fill="#ffdd40"/><path d="m256 310.343v29.73l59.283 17.443c0-6.991 0-17.701 0-28.581z" fill="#ffb332"/><path d="m104.058 357.994v26.787l151.942-44.708v-29.73z" fill="#ffa219"/><path d="m348.925 394.325-53.664-13.85c-2.422-.625-4.783 1.204-4.783 3.705v125.393c21.456-3.022 42.023-8.81 61.318-17.015v-94.527c0-1.746-1.182-3.27-2.871-3.706z" fill="#ffdd40"/><path d="m318.533 491.515s0-65.5 0-84c0-18.496 7.416-19.119 7.416-19.119l-30.688-7.922c-2.422-.625-4.783 1.204-4.783 3.705v125.393c12.369-1.742 24.44-4.409 36.145-7.923-6.566-1.81-8.09-10.134-8.09-10.134z" fill="#ffb332"/><path d="m104.058 416.137 151.942-39.589v-15.501l-151.942 39.589z" fill="#ffa219"/><path d="m320.426 134.328 4.442-20.748c.938-4.383 4.768-7.51 9.198-7.51h10.534c4.429 0 8.259 3.127 9.198 7.51l4.442 20.748z" fill="#ffc839"/><path d="m354.583 117.248c-.86 3.374-3.912 5.974-7.683 5.974h-15.134c-3.772 0-6.823-2.6-7.683-5.974l-3.657 17.079h37.814z" fill="#ffb332"/><path d="m303.81 157.773 8.768-19.029c1.337-2.903 4.242-4.762 7.438-4.762h38.635c3.196 0 6.1 1.859 7.438 4.762l8.768 19.029c1.158 2.513-.678 5.38-3.445 5.38h-64.157c-2.768 0-4.603-2.867-3.445-5.38z" fill="#ffdd40"/><path d="m336.67 142.865 1.899-4.121c1.337-2.903 4.242-4.762 7.438-4.762h-25.992c-3.196 0-6.1 1.859-7.438 4.762l-8.767 19.029c-1.158 2.513.678 5.38 3.445 5.38h42.406c-10.434 0-17.357-10.811-12.991-20.288z" fill="#ffc839"/><path d="m312.638 163.153h26.695v36.497h-26.695z" fill="#ffc839"/><path d="m339.333 163.153h26.695v36.497h-26.695z" fill="#ffdd40"/><g><path d="m369.509 170.653h-60.352c-4.142 0-7.5-3.357-7.5-7.5s3.358-7.5 7.5-7.5h60.352c4.142 0 7.5 3.357 7.5 7.5s-3.358 7.5-7.5 7.5z" fill="#fcea9d"/></g><g><path d="m369.509 207.15h-60.352c-4.142 0-7.5-3.357-7.5-7.5s3.358-7.5 7.5-7.5h60.352c4.142 0 7.5 3.357 7.5 7.5 0 4.142-3.358 7.5-7.5 7.5z" fill="#fcea9d"/></g><path d="m330.595 163.153c0-4.143 3.358-7.5 7.5-7.5h-28.938c-4.142 0-7.5 3.357-7.5 7.5s3.358 7.5 7.5 7.5h28.938c-4.142 0-7.5-3.357-7.5-7.5z" fill="#ffdd40"/><path d="m330.595 199.649c0-4.143 3.358-7.5 7.5-7.5h-28.938c-4.142 0-7.5 3.357-7.5 7.5s3.358 7.5 7.5 7.5h28.938c-4.142.001-7.5-3.357-7.5-7.5z" fill="#ffdd40"/><ellipse cx="339.333" cy="71.712" fill="#ffc839" rx="15.095" ry="18.146"/><ellipse cx="341.666" cy="67.879" fill="#ffdd40" rx="7.995" ry="9.611"/><g><path d="m339.333 39.347c-14.06 0-25.5-11.439-25.5-25.5 0-3.096.553-6.125 1.644-9.004 1.468-3.872 5.798-5.82 9.671-4.355 3.874 1.468 5.823 5.798 4.355 9.672-.445 1.174-.67 2.414-.67 3.688 0 5.79 4.711 10.5 10.5 10.5 5.79 0 10.5-4.71 10.5-10.5 0-1.271-.226-2.513-.67-3.688-1.465-3.875.488-8.203 4.362-9.669 3.876-1.465 8.203.488 9.668 4.363 1.088 2.877 1.64 5.902 1.64 8.993 0 14.06-11.44 25.5-25.5 25.5z" fill="#fcea9d"/></g><path d="m140.244 263.247c-.38-7.235-6.505-13.046-13.749-13.068-3.015-.009-5.806.948-8.081 2.579-1.371.982-3.244.55-4.073-.919-2.988-5.297-8.668-8.874-15.183-8.874-5.999 0-11.287 3.033-14.42 7.648-.882 1.3-2.655 1.684-3.912.743-2.22-1.662-4.888-2.683-7.737-2.881-1.398-.097-2.478-1.27-2.509-2.671-.382-16.979-14.313-30.496-31.235-30.496-10.389 0-19.59 5.072-25.271 12.873-2.015 12.644-3.074 25.607-3.074 38.819 0 3.622.105 7.219.261 10.803h115.19c7.875 0 14.21-6.59 13.793-14.556z" fill="#b1e4f9"/><path d="m353.474 35.054c-12.142-1.295-8.441-12.401-8.441-12.401-1.643 1.067-3.598 1.694-5.7 1.694-5.789 0-10.5-4.71-10.5-10.5 0-1.273.225-2.514.67-3.688 1.468-3.874-.482-8.204-4.355-9.672-3.873-1.465-8.203.483-9.671 4.355-1.091 2.879-1.644 5.908-1.644 9.004 0 14.061 11.44 25.5 25.5 25.5 5.227.001 10.091-1.583 14.141-4.292z" fill="#ffdd40"/><path d="m140.261 204.696 13.34 20.144h31.195l13.341-20.144z" fill="#ffc839"/><path d="m173.074 223.122-5.772-8.715c-2.754-4.159.228-9.711 5.216-9.711h-32.258l13.34 20.144h21.18c-.664-.452-1.249-1.028-1.706-1.718z" fill="#ffb332"/><g><path d="m169.199 115.57c-4.142 0-7.5-3.357-7.5-7.5v-26.212c0-4.143 3.358-7.5 7.5-7.5s7.5 3.357 7.5 7.5v26.212c0 4.143-3.358 7.5-7.5 7.5z" fill="#ffb332"/></g><g><path d="m169.199 64.065c-4.142 0-7.5-3.357-7.5-7.5v-20.718c0-4.142 3.358-7.5 7.5-7.5s7.5 3.358 7.5 7.5v20.719c0 4.142-3.358 7.499-7.5 7.499z" fill="#ffb332"/></g><path d="m150.292 134.328 4.442-20.748c.938-4.383 4.768-7.51 9.198-7.51h10.534c4.429 0 8.259 3.127 9.198 7.51l4.442 20.748z" fill="#ffc839"/><path d="m184.449 117.248c-.86 3.374-3.912 5.974-7.683 5.974h-15.134c-3.771 0-6.824-2.6-7.683-5.974l-3.657 17.079h37.814z" fill="#ffb332"/><path d="m133.676 157.773 8.768-19.029c1.337-2.903 4.242-4.762 7.438-4.762h38.635c3.196 0 6.1 1.859 7.438 4.762l8.768 19.029c1.158 2.513-.678 5.38-3.445 5.38h-64.158c-2.767 0-4.602-2.867-3.444-5.38z" fill="#ffdd40"/><path d="m166.536 142.865 1.899-4.121c1.337-2.903 4.242-4.762 7.438-4.762h-25.992c-3.196 0-6.1 1.859-7.438 4.762l-8.768 19.029c-1.158 2.513.678 5.38 3.445 5.38h42.406c-10.433 0-17.356-10.811-12.99-20.288z" fill="#ffc839"/><path d="m142.504 163.153h26.695v36.497h-26.695z" fill="#ffc839"/><path d="m169.199 163.153h26.695v36.497h-26.695z" fill="#ffdd40"/><g><path d="m199.374 170.653h-60.352c-4.142 0-7.5-3.357-7.5-7.5s3.358-7.5 7.5-7.5h60.352c4.142 0 7.5 3.357 7.5 7.5s-3.357 7.5-7.5 7.5z" fill="#fcea9d"/></g><g><path d="m199.374 207.15h-60.352c-4.142 0-7.5-3.357-7.5-7.5s3.358-7.5 7.5-7.5h60.352c4.142 0 7.5 3.357 7.5 7.5 0 4.142-3.357 7.5-7.5 7.5z" fill="#fcea9d"/></g><path d="m160.461 163.153c0-4.143 3.358-7.5 7.5-7.5h-28.938c-4.142 0-7.5 3.357-7.5 7.5s3.358 7.5 7.5 7.5h28.938c-4.143 0-7.5-3.357-7.5-7.5z" fill="#ffdd40"/><path d="m160.461 199.649c0-4.143 3.358-7.5 7.5-7.5h-28.938c-4.142 0-7.5 3.357-7.5 7.5s3.358 7.5 7.5 7.5h28.938c-4.143.001-7.5-3.357-7.5-7.5z" fill="#ffdd40"/><ellipse cx="169.199" cy="71.712" fill="#ffc839" rx="15.095" ry="18.146"/><ellipse cx="171.532" cy="67.879" fill="#ffdd40" rx="7.995" ry="9.611"/><g><path d="m169.199 39.347c-14.061 0-25.5-11.439-25.5-25.5 0-3.096.553-6.125 1.644-9.004 1.468-3.872 5.798-5.82 9.671-4.355 3.873 1.468 5.823 5.798 4.355 9.672-.445 1.174-.67 2.414-.67 3.688 0 5.79 4.71 10.5 10.5 10.5s10.5-4.71 10.5-10.5c0-1.271-.226-2.513-.67-3.688-1.465-3.875.488-8.203 4.362-9.669 3.876-1.465 8.203.488 9.668 4.363 1.088 2.877 1.64 5.902 1.64 8.993 0 14.06-11.44 25.5-25.5 25.5z" fill="#fcea9d"/></g><path d="m183.34 35.054c-12.142-1.295-8.441-12.401-8.441-12.401-1.643 1.067-3.598 1.694-5.7 1.694-5.79 0-10.5-4.71-10.5-10.5 0-1.273.226-2.514.67-3.688 1.468-3.874-.482-8.204-4.355-9.672-3.873-1.465-8.203.483-9.671 4.355-1.091 2.879-1.644 5.908-1.644 9.004 0 14.061 11.439 25.5 25.5 25.5 5.227.001 10.091-1.583 14.141-4.292z" fill="#ffdd40"/></g></svg>