<svg height="512" viewBox="0 0 512 512" width="512" xmlns="http://www.w3.org/2000/svg">
   <g>
      <g>
         <circle cx="256" cy="256" fill="#787680" r="240"/>
         <circle cx="256" cy="256" fill="#e0e0e2" r="200"/>
         <g fill="#8bc24a">
            <rect height="144" rx="8" transform="matrix(-1 0 0 -1 640.412 512)" width="48" x="296.206" y="184"/>
            <path d="m168 320.347v-128.694a8 8 0 0 1 12.326-6.729l88.206 64.347a8 8 0 0 1 0 13.458l-88.206 64.347a8 8 0 0 1 -12.326-6.729z"/>
         </g>
      </g>
      <g>
         <path d="m431.362 80.638a248 248 0 1 0 -350.724 350.724 248 248 0 1 0 350.724-350.724zm-11.313 339.411a232 232 0 0 1 -328.1-328.1 232 232 0 0 1 328.1 328.1z"/>
         <path d="m256 48c-114.691 0-208 93.309-208 208s93.309 208 208 208 208-93.309 208-208-93.309-208-208-208zm0 400c-105.869 0-192-86.131-192-192s86.131-192 192-192 192 86.131 192 192-86.131 192-192 192z"/>
         <path d="m336.206 176h-32a16.019 16.019 0 0 0 -16 16v128a16.019 16.019 0 0 0 16 16h32a16.019 16.019 0 0 0 16-16v-128a16.019 16.019 0 0 0 -16-16zm0 144h-32l-.01-128h32.01z"/>
         <path d="m273.088 242.691-88.047-64.23q-.191-.14-.389-.267a16 16 0 0 0 -24.652 13.459v128.694a16 16 0 0 0 24.652 13.459q.2-.127.389-.267l88.047-64.23a16 16 0 0 0 0-26.618zm-9.271 13.576-87.817 64.063v-128.66l87.817 64.063q.191.139.389.267-.198.127-.389.267z"/>
      </g>
   </g>
</svg>