<svg height="512" viewBox="0 0 512 512" width="512" xmlns="http://www.w3.org/2000/svg">
   <g>
      <g>
         <circle cx="256" cy="256" fill="#787680" r="240"/>
         <circle cx="256" cy="256" fill="#e0e0e2" r="200"/>
         <g fill="#8bc24a">
            <rect height="144" rx="8" width="48" x="184" y="184"/>
            <rect height="144" rx="8" width="48" x="280" y="184"/>
         </g>
      </g>
      <g>
         <path d="m431.362 80.638a248 248 0 1 0 -350.724 350.724 248 248 0 1 0 350.724-350.724zm-11.313 339.411a232 232 0 0 1 -328.1-328.1 232 232 0 0 1 328.1 328.1z"/>
         <path d="m256 48c-114.691 0-208 93.309-208 208s93.309 208 208 208 208-93.309 208-208-93.309-208-208-208zm0 400c-105.869 0-192-86.131-192-192s86.131-192 192-192 192 86.131 192 192-86.131 192-192 192z"/>
       
         <path d="m224 176h-32a16.019 16.019 0 0 0 -16 16v128a16.019 16.019 0 0 0 16 16h32a16.019 16.019 0 0 0 16-16v-128a16.019 16.019 0 0 0 -16-16zm0 144h-32v-128h32l.01 128z"/>
         <path d="m320 176h-32a16.019 16.019 0 0 0 -16 16v128a16.019 16.019 0 0 0 16 16h32a16.019 16.019 0 0 0 16-16v-128a16.019 16.019 0 0 0 -16-16zm0 144h-32v-128h32l.01 128z"/>
      </g>
   </g>
</svg>