<svg id="Capa_2" enable-background="new 0 0 484.96 484.96" height="512" viewBox="0 0 484.96 484.96" width="512" xmlns="http://www.w3.org/2000/svg"><g><path d="m74.195 189.114c0-9.188-7.448-16.637-16.637-16.637-9.188 0-16.636 7.448-16.637 16.635v24.345 98.512h33.274z" fill="#d78878"/><path d="m107.468 224.894c16.687 0 30.215 13.528 30.215 30.215v43.837 24.327h-39.923v-98.379z" fill="#d78878"/><path d="m107.468 224.894h-9.708v98.379h18.714v-97.014c-2.845-.887-5.869-1.365-9.006-1.365z" fill="#c96e59"/><path d="m107.468 212.773c0-9.188-7.449-16.637-16.637-16.637s-16.637 7.448-16.637 16.637v99.198h33.274z" fill="#d78878"/><path d="m55.301 189.113c.001-6.608 3.886-12.311 9.469-14.995-2.179-1.048-4.633-1.64-7.212-1.64-9.188 0-16.636 7.448-16.637 16.635v24.345 98.513h14.38v-98.513z" fill="#c96e59"/><path d="m98.044 197.777c-2.179-1.047-4.634-1.641-7.213-1.641-9.188 0-16.637 7.448-16.637 16.637v99.198h14.38v-99.198c.001-6.609 3.887-12.312 9.47-14.996z" fill="#c96e59"/><g><g id="XMLID_442_"><g><path d="m177.16 380.276 23.68 63.34h-64.4l-36.1-39.08-24.25-15.05c-47.32-29.35-76.09-81.08-76.09-136.75v-75.43c0-11.31 9.16-20.47 20.46-20.47 5.65 0 10.76 2.29 14.47 5.99 3.7 3.71 5.99 8.83 5.99 14.48v78.17c0 7.94 3.18 15.55 8.83 21.13l4.15 4.08z" fill="#eb9c8d"/></g></g><path d="m160.316 436.094-36.1-39.08-24.25-15.05c-47.32-29.35-76.09-81.08-76.09-136.75v-75.43c0-4.34 1.383-8.377 3.683-11.687-2.208-.815-4.608-1.261-7.099-1.261-11.3 0-20.46 9.16-20.46 20.47v75.43c0 55.67 28.77 107.4 76.09 136.75l24.25 15.05 36.1 39.08h64.4l-2.812-7.522z" fill="#d78878"/><g id="XMLID_440_"><g><path d="m113.229 328.622-59.329-47.936-4.15-4.08c-3.518-3.474-6.077-7.736-7.508-12.373-2.181 4.742-3.342 9.934-3.342 15.223 0 10.191 4.31 19.98 11.815 26.848l25.057 23.085c10.672 9.831 27.198 9.493 37.457-.767z" fill="#d78878"/><path d="m218.97 379.066v55.04h-20.21l-75.51-81.67-62.4-57.19c-4.6-4.21-6.95-9.99-6.95-15.79 0-4.91 1.67-9.83 5.08-13.85 7.43-8.76 20.45-10.11 29.51-3.04l49.49 38.61 30.23 9.26c13.11 4.01 24.49 11.58 33.15 21.53 8.65 9.95 14.56 22.29 16.72 35.82.59 3.73.89 7.5.89 11.28z" fill="#eb9c8d"/></g></g><path d="m444.039 189.113c-.001-9.188-7.449-16.635-16.637-16.635s-16.637 7.448-16.637 16.637v134.159h33.274z" fill="#d78878"/><path d="m434.704 174.161c-2.202-1.075-4.687-1.684-7.302-1.684-9.188 0-16.637 7.448-16.637 16.637v134.159h14.564v-134.159c0-6.573 3.842-12.25 9.375-14.953z" fill="#c96e59"/><path d="m377.492 224.894c-16.687 0-30.215 13.528-30.215 30.215v43.837 50.702h47.727v-121.959z" fill="#d78878"/><path d="m365.085 348.109v-50.702-43.837c0-12.433 7.511-23.108 18.242-27.745l-5.835-.932c-16.687 0-30.215 13.528-30.215 30.215v43.837 50.702h47.727v-1.539h-29.919z" fill="#c96e59"/><path d="m410.765 212.773c0-9.188-7.448-16.637-16.637-16.637s-16.637 7.448-16.637 16.637v128.428h33.274z" fill="#d78878"/><path d="m391.758 339.145v-128.428c0-5.756 2.933-10.834 7.375-13.821-1.578-.496-3.264-.76-5.005-.76-9.188 0-16.637 7.448-16.637 16.637v128.428h33.274v-2.056z" fill="#c96e59"/><path d="m464.5 156.836c-1.655 0-3.255.218-4.795.589l-2.03 3.388-8.009 7.208v18.82 79.283l-22.265 25.305-13.59.7-92.203 61.168-20.66 95.26h61.43l22.24-44.02 24.25-15.05c47.32-29.35 76.09-81.08 76.09-136.75v-75.43c.002-11.311-9.158-20.471-20.458-20.471z" fill="#eb9c8d"/><path d="m339.42 360.516 109.45-72.61 4.15-4.08c5.65-5.58 8.83-13.19 8.83-21.13v-78.17c0-5.65 2.29-10.77 5.99-14.48 3.238-3.229 7.552-5.383 12.35-5.879-3.753-4.479-9.391-7.33-15.691-7.33-5.65 0-10.76 2.29-14.47 5.99-3.7 3.71-5.99 8.83-5.99 14.48v78.17c0 7.94-3.18 15.55-8.83 21.13l-4.15 4.08-109.45 72.61-20.66 95.26h19.376z" fill="#d78878"/><g id="XMLID_444_"><g><path d="m425.98 265.606c7.44 8.78 6.62 21.87-1.87 29.64l-62.4 57.19-60.76 96.12h-34.96v-41.13-28.36c0-3.78.3-7.55.89-11.28 4.31-27.07 23.66-49.33 49.87-57.35l30.23-9.26 49.49-38.61c3.9-3.05 8.54-4.53 13.16-4.53 6.08 0 12.12 2.59 16.35 7.57z" fill="#eb9c8d"/></g></g><g id="XMLID_436_"><g fill="#ade194"><path d="m403.04 421.446v42.63c0 6.478-5.252 11.73-11.73 11.73h-121.04c-6.478 0-11.73-5.252-11.73-11.73v-42.63c0-9.34 7.57-16.91 16.9-16.91h110.7c9.33 0 16.9 7.57 16.9 16.91z"/><path d="m226.42 421.446v42.63c0 6.478-5.252 11.73-11.73 11.73h-121.04c-6.478 0-11.73-5.252-11.73-11.73v-42.63c0-9.34 7.57-16.91 16.9-16.91h110.7c9.33 0 16.9 7.57 16.9 16.91z"/></g></g><path d="m231.033 281.184-124.702-125.242c-31.701-31.838-33.576-82.706-4.306-116.792 29.389-34.224 80.218-39.947 116.482-13.115l19.981 14.784c2.075 1.535 4.909 1.535 6.984 0l19.981-14.784c36.264-26.832 87.092-21.109 116.482 13.115 29.271 34.086 27.396 84.953-4.306 116.792l-124.702 125.242c-6.038 6.064-15.856 6.064-21.894 0z" fill="#f58a97"/><g><path d="m179.244 155.942c-31.701-31.838-33.576-82.705-4.306-116.792 8.2-9.549 18.071-16.873 28.826-21.896-34.326-16.08-76.155-7.897-101.74 21.896-29.271 34.086-27.396 84.953 4.306 116.792l124.702 125.241c6.038 6.064 15.856 6.064 21.895 0l25.509-25.62z" fill="#f07281"/></g></g></g></svg>