<svg height="512" viewBox="0 0 512 512" width="512" xmlns="http://www.w3.org/2000/svg">
   <g>
      <g>
         <circle cx="256" cy="256" fill="#787680" r="240"/>
         <circle cx="256" cy="256" fill="#e0e0e2" r="200"/>
         <path d="m192 320.347v-128.694a8 8 0 0 1 12.326-6.729l112.206 64.347a8 8 0 0 1 0 13.458l-112.206 64.347a8 8 0 0 1 -12.326-6.729z" fill="#8bc24a"/>
      </g>
      <g>
         <path d="m431.362 80.638a248 248 0 1 0 -350.724 350.724 248 248 0 1 0 350.724-350.724zm-11.313 339.411a232 232 0 0 1 -328.1-328.1 232 232 0 0 1 328.1 328.1z"/>
         <path d="m256 48c-114.691 0-208 93.309-208 208s93.309 208 208 208 208-93.309 208-208-93.309-208-208-208zm0 400c-105.869 0-192-86.131-192-192s86.131-192 192-192 192 86.131 192 192-86.131 192-192 192z"/>

         <path d="m320.858 242.541c-.114-.073-.229-.143-.346-.21l-112.06-64.263a16 16 0 0 0 -24.452 13.585v128.694a16 16 0 0 0 24.452 13.585l112.06-64.263c.117-.067.232-.137.346-.21a16 16 0 0 0 0-26.918zm-120.511 77.6c-.118.068-.231.185-.344.258a.27.27 0 0 1 0-.047v-128.699c.114.074.229.143.347.211l111.836 64.136z"/>
      </g>
   </g>
</svg>