<svg height="512" viewBox="0 0 512 512" width="512" xmlns="http://www.w3.org/2000/svg">
   <g>
      <g>
         <circle cx="256" cy="256" fill="#787680" r="240"/>
         <circle cx="256" cy="256" fill="#e0e0e2" r="200"/>
         <g fill="#8bc24a">
            <rect height="144" rx="8" width="48" x="168" y="184"/>
            <path d="m344.206 191.653v128.694a8 8 0 0 1 -12.326 6.729l-88.206-64.347a8 8 0 0 1 0-13.458l88.206-64.347a8 8 0 0 1 12.326 6.729z"/>
         </g>
      </g>
      <g>
         <path d="m431.362 80.638a248 248 0 1 0 -350.724 350.724 248 248 0 1 0 350.724-350.724zm-11.313 339.411a232 232 0 0 1 -328.1-328.1 232 232 0 0 1 328.1 328.1z"/>
         <path d="m256 48c-114.691 0-208 93.309-208 208s93.309 208 208 208 208-93.309 208-208-93.309-208-208-208zm0 400c-105.869 0-192-86.131-192-192s86.131-192 192-192 192 86.131 192 192-86.131 192-192 192z"/>
         <path d="m208 176h-32a16.019 16.019 0 0 0 -16 16v128a16.019 16.019 0 0 0 16 16h32a16.019 16.019 0 0 0 16-16v-128a16.019 16.019 0 0 0 -16-16zm0 144h-32v-128h32l.01 128z"/>
         <path d="m343.873 177.61a15.994 15.994 0 0 0 -16.319.584q-.2.128-.389.267l-88.047 64.23a16 16 0 0 0 0 26.618l88.047 64.23q.19.139.389.267a16 16 0 0 0 24.652-13.459v-128.694a15.993 15.993 0 0 0 -8.333-14.043zm-7.667 142.719-87.817-64.062q-.191-.14-.389-.267.2-.127.389-.267l87.817-64.063z"/>
      </g>
   </g>
</svg>