<svg id="Capa_1" enable-background="new 0 0 512 512" height="512" viewBox="0 0 512 512" width="512" xmlns="http://www.w3.org/2000/svg"><g><path d="m442.08 200.606c-9.677 4.269-22.719 4.476-33.236 3.64-19.533-1.553-39.205-.303-58.376 3.75-78.139 16.519-94.468 52.463-94.468 52.463s-16.329-35.943-94.469-52.463c-19.171-4.053-38.842-5.302-58.376-3.75-10.516.836-23.558.629-33.236-3.64-2.022-.892-4.296.536-4.296 2.746v43.891l190.376 75 190.376-75v-43.891c.001-2.209-2.273-3.638-4.295-2.746z" fill="#fdf6ec"/><path d="m382.29 231.222c-.828-4.059-4.791-6.677-8.848-5.849-2.708.553-61.96 12.921-109.942 44.787v-20.035c-5.6 6.16-7.5 10.34-7.5 10.34s-1.9-4.18-7.5-10.34v20.035c-47.982-31.866-107.235-44.234-109.942-44.787-4.057-.828-8.021 1.791-8.848 5.849-.828 4.059 1.791 8.02 5.85 8.848.671.137 66.339 13.836 112.94 48.409v30.815l7.5 2.95 7.5-2.95v-30.815c46.531-34.516 112.271-48.272 112.943-48.41 4.057-.829 6.675-4.789 5.847-8.847z" fill="#fddeb0"/><path d="m446.377 203.35v30.905l-20.446 8.056v-35.526c0-.961-.317-1.789-.818-2.402 6.011-.44 11.941-1.554 16.971-3.772 2.013-.901 4.293.531 4.293 2.739z" fill="#fcead0"/><path d="m256 309.26-210.116-82.777c-3.216-1.267-6.697 1.103-6.697 4.56v36.089l216.813 89.138 216.813-89.138v-36.089c0-3.456-3.481-5.827-6.697-4.56z" fill="#6ed5a1"/><path d="m472.814 231.045v26.1l-20.446 8.404v-28.482c0-1.85-.818-3.415-2.034-4.365l15.785-6.216c3.209-1.269 6.695 1.103 6.695 4.559z" fill="#46cc8d"/><path d="m507.717 449.774-500.617-205.819c-2.438-1.002-5.114.79-5.114 3.427v31.826c0 1.387.775 2.658 2.008 3.293l425.047 218.989c.823.424 1.775.525 2.668.282l28.105-7.634c.785-.213 1.618-.162 2.371.145l42.724 17.439c2.437.995 5.105-.798 5.105-3.43v-55.092c-.001-1.502-.907-2.855-2.297-3.426z" fill="#c68d7a"/><path d="m510.016 453.195v19.138c-.337-.337-.736-.603-1.186-.787l-501.714-206.274c-2.443-1.002-5.132.787-5.132 3.435v-21.326c0-2.638 2.678-4.427 5.112-3.425l500.621 205.814c1.39.573 2.299 1.933 2.299 3.425z" fill="#bc7c63"/><path d="m4.283 449.774 500.617-205.819c2.438-1.002 5.114.79 5.114 3.427v31.826c0 1.387-.775 2.658-2.008 3.293l-425.047 218.989c-.823.424-1.775.525-2.668.282l-28.105-7.634c-.785-.213-1.618-.162-2.371.145l-42.724 17.439c-2.437.995-5.105-.798-5.105-3.43v-55.092c.001-1.502.907-2.855 2.297-3.426z" fill="#935b44"/><path d="m1.984 453.195v19.138c.337-.337.736-.603 1.186-.787l501.715-206.274c2.443-1.002 5.132.787 5.132 3.435v-21.326c0-2.638-2.678-4.427-5.112-3.425l-500.621 205.815c-1.391.572-2.3 1.932-2.3 3.424z" fill="#87523e"/><circle cx="256" cy="376.041" fill="#753e2e" r="10.223"/><g fill="#6ed5a1"><circle cx="293.755" cy="56.867" r="10.052"/><ellipse cx="324.533" cy="56.867" rx="10.052" ry="10.052" transform="matrix(.982 -.189 .189 .982 -4.898 62.398)"/><path d="m378.979 168.589c4.164 0 7.539-3.375 7.539-7.539v-86.471c0-4.164-3.375-7.539-7.539-7.539s-7.539 3.375-7.539 7.539v86.471c0 4.164 3.375 7.539 7.539 7.539z"/><path d="m138.906 74.579v86.471c0 4.164 3.375 7.539 7.539 7.539s7.539-3.375 7.539-7.539v-86.471c0-4.164-3.375-7.539-7.539-7.539s-7.539 3.375-7.539 7.539z"/><path d="m191.004 173.408c5.635 3.114 12.969 4.573 20.631 4.573 13.549 0 28.119-4.566 36.103-12.618 3.929-3.962 6.915-9.031 8.826-14.828 9.204 5.626 19.725 8.664 30.121 8.663 27.08 0 53.049-16.613 52.781-45.762-.122-13.254-5.589-25.46-14.269-31.855-4.952-3.647-13.318-7.256-25.06-3.728-15.821 4.751-21.984 19.995-18.621 31.394 2.106 7.137 6.969 12.587 14.066 15.763 8.467 3.789 18.36 3.565 26.268 1.438-3.826 8.336-12.729 15.677-31.558 17.501-10.444 1.009-21.487-2.4-30.295-9.359-.316-.249-.648-.461-.988-.652-.058-8.235-1.645-16.097-3.191-23.728l-2.7-13.323c-.827-4.08-4.798-6.715-8.887-5.891-4.081.827-6.717 4.806-5.891 8.886l2.7 13.323c1.57 7.749 3.193 15.762 2.85 23.35-.346 7.621-2.782 14.082-6.859 18.193-7.722 7.786-29.079 10.801-38.737 5.465-4.397-2.43-7.269-6.645-7.683-11.275-.387-4.33 1.378-8.326 4.972-11.25 3.23-2.628 3.716-7.376 1.089-10.605s-7.374-3.718-10.607-1.089c-7.49 6.095-11.306 14.948-10.472 24.286.862 9.625 6.622 18.272 15.411 23.128zm130.722-62.885c-5.212 2.471-13.754 3.512-19.986.723-3.034-1.357-4.919-3.407-5.762-6.266-1.643-5.57 3.067-11.057 8.497-12.687 1.764-.53 3.408-.796 4.944-.796 2.561 0 4.822.739 6.835 2.222 4.138 3.049 7.068 9.146 7.897 16.118-.819.089-1.638.314-2.425.686z"/><path d="m126.103 52.766c1.232 2.846 4.008 4.547 6.923 4.547.998 0 2.014-.2 2.99-.622 12.861-5.564 26.745-12.775 27.329-13.08 3.171-1.65 4.747-5.299 3.775-8.738s-4.233-5.728-7.79-5.47c-10.079.717-16.059-1.149-17.763-5.546-1.303-3.365-.028-5.564.846-6.575 1.225-1.417 3.57-2.694 6.477-2.027 4.062.927 8.103-1.606 9.033-5.664s-1.606-8.102-5.664-9.032c-7.884-1.804-16.025.822-21.247 6.858-5.183 5.99-6.492 14.172-3.504 21.887 1.447 3.735 4.084 7.74 8.853 10.717-2.105.968-4.241 1.926-6.333 2.832-3.82 1.654-5.578 6.092-3.925 9.913z"/></g></g></svg>