<svg id="Capa_3" enable-background="new 0 0 512 512" height="512" viewBox="0 0 512 512" width="512" xmlns="http://www.w3.org/2000/svg"><g><g><g><g><path d="m180.716 274.716-140.716 140.715c-5.858 5.858-5.858 15.355 0 21.213l35.355 35.356c5.858 5.858 15.355 5.858 21.213 0l140.716-140.716z" fill="#0052be"/><g><path d="m57.678 454.322 17.677 17.678c5.858 5.858 15.355 5.858 21.213 0l140.716-140.716-28.284-28.284z" fill="#00337a"/></g><path d="m11.716 443.716c-15.621 15.621-15.621 40.948 0 56.568 15.621 15.621 40.948 15.621 56.568 0l28.285-28.284-56.569-56.569z" fill="#ff6b6b"/></g><circle cx="317" cy="195" fill="#0052be" r="180"/><g><path d="m189.721 322.279c32.573 32.574 77.573 52.721 127.279 52.721 99.411 0 180-80.589 180-180 0-49.706-20.147-94.706-52.721-127.279z" fill="#00337a"/></g><path d="m317 390c-107.523 0-195-87.477-195-195s87.477-195 195-195 195 87.477 195 195-87.477 195-195 195zm0-360c-90.981 0-165 74.019-165 165s74.019 165 165 165 165-74.019 165-165-74.019-165-165-165z" fill="#f9f9f9"/><g><path d="m433.618 78.382c29.877 29.877 48.382 71.127 48.382 116.618 0 90.981-74.019 165-165 165-45.491 0-86.741-18.505-116.618-48.382l-21.203 21.203c35.309 35.31 84.059 57.179 137.821 57.179 107.523 0 195-87.477 195-195 0-53.762-21.869-102.512-57.179-137.821z" fill="#e2dff4"/></g></g><g><g><path d="m317 315c-66.168 0-120-53.832-120-120s53.832-120 120-120 120 53.832 120 120-53.832 120-120 120z" fill="#ff6b6b"/><path d="m197 195c0 66.168 53.832 120 120 120s120-53.832 120-120z" fill="#ff1f3d"/><path d="m294.515 255.014c-2.285 0-4.583-.527-6.724-1.598-5.114-2.557-8.292-7.698-8.292-13.416v-90c0-5.718 3.177-10.859 8.292-13.416 5.115-2.559 11.133-2.014 15.708 1.416l60 45c3.813 2.86 6 7.233 6 12s-2.187 9.14-6 12l-60 45c-2.659 1.995-5.809 3.014-8.984 3.014z" fill="#f9f9f9"/></g></g><path d="m279.5 240c0 5.718 3.177 10.859 8.292 13.416 2.141 1.07 4.438 1.598 6.724 1.598 3.175 0 6.325-1.019 8.985-3.014l60-45c3.813-2.86 6-7.233 6-12h-90v45z" fill="#e2dff4"/></g><g><g><g><path d="m11.716 500.284c15.621 15.621 40.948 15.621 56.568 0l28.285-28.284-28.284-28.284z" fill="#ff1f3d"/></g></g></g></g></svg>