<?xml version="1.0" encoding="iso-8859-1"?>
<!-- Generator: Adobe Illustrator 19.0.0, SVG Export Plug-In . SVG Version: 6.00 Build 0)  -->
<svg version="1.1" id="Capa_4" xmlns="http://www.w3.org/2000/svg" xmlns:xlink="http://www.w3.org/1999/xlink" x="0px" y="0px"
	 viewBox="0 0 418.272 418.272" style="enable-background:new 0 0 418.272 418.272;" xml:space="preserve">
<path style="fill:#CB5641;" d="M49.136,296c-22.064,0-40-17.944-40-40V48c0-22.056,17.936-40,40-40h256c22.064,0,40,17.944,40,40
	v208c0,22.056-17.936,40-40,40H49.136z"/>
<path style="fill:#CDDCF0;" d="M402.688,302.176c-8.056,21.784-24.12,39.128-45.224,48.832c-11.536,5.304-23.72,7.992-36.224,7.992
	c-33.904,0-64.96-19.888-79.112-50.672c-9.704-21.104-10.608-44.72-2.552-66.504s24.12-39.128,45.224-48.832
	c11.536-5.304,23.728-7.992,36.24-7.992c33.896,0,64.944,19.888,79.096,50.672C409.848,256.776,410.752,280.392,402.688,302.176z"/>
<path style="fill:#A7BFE2;" d="M321.048,185c-12.512,0-24.704,2.688-36.24,7.992c-21.104,9.704-37.168,27.04-45.224,48.832
	c-7.52,20.328-6.912,42.184,1.048,62.176h64.504c26.504,0,48-21.488,48-48v-64.624C343.064,187.36,332.248,185,321.048,185z"/>
<path style="fill:#565656;" d="M244.264,326.032l-58.92,59.264c-3.128,3.136-3.128,8.208,0,11.328l11.344,11.296
	c1.504,1.504,3.52,2.336,5.64,2.344c0.016,0,0.016,0,0.016,0c2.144-0.008,4.144-0.832,5.64-2.352l58.984-59.328L244.264,326.032z"/>
<polygon style="fill:#FFFFFF;" points="137.136,93.68 240.824,152 137.136,210.32 "/>
<path style="fill:#8993A1;" d="M353.136,256v-64.624c-5.152-2.056-10.488-3.64-16-4.68V256c0,17.648-14.352,32-32,32h-69.192
	c1.032,5.44,2.608,10.768,4.688,16h64.504C331.64,304,353.136,282.512,353.136,256z"/>
<path d="M129.136,80v144l128-72L129.136,80z M145.136,107.36l79.36,44.64l-79.36,44.64V107.36z"/>
<path d="M353.136,181.584V48c0-26.512-21.496-48-48-48h-256c-26.504,0-48,21.488-48,48v208c0,26.512,21.496,48,48,48h181.576
	c2.064,5.824,4.656,11.376,7.744,16.616l-58.792,59.048c-6.24,6.256-6.232,16.392,0.024,22.632l11.336,11.304
	c3.12,3.112,7.208,4.672,11.296,4.672c4.104,0,8.2-1.568,11.328-4.696l58.72-58.976c14.304,8.456,30.936,13.4,48.768,13.4
	c53.016,0,96-42.984,96-96C417.136,230.216,390.4,194.776,353.136,181.584z M49.136,288c-17.648,0-32-14.352-32-32V48
	c0-17.648,14.352-32,32-32h256c17.648,0,32,14.352,32,32v129.44c-5.216-0.88-10.536-1.44-16-1.44c-53.016,0-96,42.984-96,96
	c0,5.464,0.56,10.784,1.44,16H49.136z M202.32,402.264L191,390.952l56.808-57.056c3.448,4.08,7.232,7.864,11.312,11.32
	L202.32,402.264z M321.136,352c-44.112,0-80-35.888-80-80s35.888-80,80-80s80,35.888,80,80S365.248,352,321.136,352z"/>
<path d="M369.136,272c0,26.464-21.536,48-48,48v16c35.344,0,64-28.656,64-64H369.136z"/>
<g>
</g>
<g>
</g>
<g>
</g>
<g>
</g>
<g>
</g>
<g>
</g>
<g>
</g>
<g>
</g>
<g>
</g>
<g>
</g>
<g>
</g>
<g>
</g>
<g>
</g>
<g>
</g>
<g>
</g>
</svg>
