<svg fill="currentColor" enable-background="new 0 0 512 512" viewBox="0 0 512 512" xmlns="http://www.w3.org/2000/svg" xmlns:xlink="http://www.w3.org/1999/xlink"><linearGradient id="lg1"><stop offset="0" stop-color="#0056e0"/><stop offset="1" stop-color="#fc54ff"/></linearGradient><linearGradient id="SVGID_1_" gradientUnits="userSpaceOnUse" x1="74.981" x2="437.02" xlink:href="#lg1" y1="437.019" y2="74.98"/><radialGradient id="SVGID_2_" cx="204.282" cy="292.507" gradientUnits="userSpaceOnUse" r="323.702"><stop offset=".0053" stop-color="#8d00db" stop-opacity=".66"/><stop offset=".1989" stop-color="#b01ae6" stop-opacity=".532"/><stop offset=".4214" stop-color="#d133f1" stop-opacity=".384"/><stop offset=".6348" stop-color="#e945f9" stop-opacity=".242"/><stop offset=".8326" stop-color="#f750fd" stop-opacity=".111"/><stop offset="1" stop-color="#fc54ff" stop-opacity="0"/></radialGradient><linearGradient id="lg2"><stop offset="0" stop-color="#fc54ff"/><stop offset=".2201" stop-color="#fd75ff"/><stop offset=".7016" stop-color="#fec8ff"/><stop offset="1" stop-color="#fff"/></linearGradient><linearGradient id="SVGID_3_" gradientUnits="userSpaceOnUse" x1="385.213" x2="673.417" xlink:href="#lg2" y1="367.668" y2="79.464"/><linearGradient id="SVGID_4_" gradientUnits="userSpaceOnUse" x1="266.855" x2="743.555" xlink:href="#lg2" y1="401.901" y2="-74.799"/><linearGradient id="SVGID_5_" gradientUnits="userSpaceOnUse" x1="329.468" x2="492.302" y1="293.772" y2="293.772"><stop offset=".0053" stop-color="#8d00db" stop-opacity=".66"/><stop offset=".0551" stop-color="#a613e3" stop-opacity=".627"/><stop offset=".1229" stop-color="#c127ec" stop-opacity=".582"/><stop offset=".2008" stop-color="#d738f3" stop-opacity=".53"/><stop offset=".2917" stop-color="#e844f8" stop-opacity=".47"/><stop offset=".4042" stop-color="#f34dfc" stop-opacity=".395"/><stop offset=".5619" stop-color="#fa53fe" stop-opacity=".291"/><stop offset="1" stop-color="#fc54ff" stop-opacity="0"/></linearGradient><linearGradient id="SVGID_6_" gradientUnits="userSpaceOnUse" x1="146.261" x2="471.437" xlink:href="#lg2" y1="479.239" y2="154.063"/><linearGradient id="SVGID_7_" gradientUnits="userSpaceOnUse" x1="301.772" x2="363.335" y1="294.833" y2="294.833"><stop offset=".0053" stop-color="#8d00db" stop-opacity=".66"/><stop offset=".0775" stop-color="#9d0ce0" stop-opacity=".612"/><stop offset=".2527" stop-color="#bf26eb" stop-opacity=".496"/><stop offset=".4318" stop-color="#da3af4" stop-opacity=".377"/><stop offset=".6138" stop-color="#ed49fa" stop-opacity=".256"/><stop offset=".8007" stop-color="#f851fe" stop-opacity=".132"/><stop offset="1" stop-color="#fc54ff" stop-opacity="0"/></linearGradient><linearGradient id="SVGID_8_" gradientUnits="userSpaceOnUse" x1="-72.689" x2="347.262" xlink:href="#lg2" y1="502.846" y2="82.895"/><linearGradient id="SVGID_9_" gradientUnits="userSpaceOnUse" x1="-123.057" x2="326.114" xlink:href="#lg2" y1="702.583" y2="253.411"/><linearGradient id="SVGID_10_" gradientUnits="userSpaceOnUse" x1="-117.388" x2="370.506" xlink:href="#lg2" y1="629.684" y2="141.791"/><linearGradient id="SVGID_11_" gradientUnits="userSpaceOnUse" x1="89.881" x2="318.738" xlink:href="#lg1" y1="345.36" y2="116.503"/><linearGradient id="SVGID_12_" gradientUnits="userSpaceOnUse" x1="-5.808" x2="253.3" xlink:href="#lg1" y1="391.292" y2="132.185"/><linearGradient id="SVGID_13_" gradientUnits="userSpaceOnUse" x1="72.31" x2="348.655" xlink:href="#lg1" y1="455.171" y2="178.826"/><linearGradient id="SVGID_14_" gradientUnits="userSpaceOnUse" x1="-44.53" x2="282.443" xlink:href="#lg1" y1="495.479" y2="168.506"/><linearGradient id="SVGID_15_" gradientUnits="userSpaceOnUse" x1="-59.556" x2="271.554" xlink:href="#lg1" y1="552.663" y2="221.553"/><linearGradient id="SVGID_16_" gradientUnits="userSpaceOnUse" x1="105.975" x2="315.862" xlink:href="#lg2" y1="171.349" y2="-38.538"/><linearGradient id="SVGID_17_" gradientUnits="userSpaceOnUse" x1="31.108" x2="168.071" xlink:href="#lg2" y1="245.445" y2="108.482"/><linearGradient id="SVGID_18_" gradientUnits="userSpaceOnUse" x1="50.434" x2="176.634" xlink:href="#lg2" y1="226.133" y2="99.933"/><linearGradient id="SVGID_19_" gradientUnits="userSpaceOnUse" x1="227.816" x2="434.603" xlink:href="#lg2" y1="169.73" y2="-37.058"/><linearGradient id="SVGID_20_" gradientUnits="userSpaceOnUse" x1="148.25" x2="283.192" xlink:href="#lg2" y1="248.934" y2="113.992"/><linearGradient id="SVGID_21_" gradientUnits="userSpaceOnUse" x1="167.238" x2="291.691" xlink:href="#lg2" y1="229.968" y2="105.516"/><g><circle cx="256" cy="256" fill="url(#SVGID_1_)" r="256"/><circle cx="256" cy="256" fill="url(#SVGID_2_)" r="256"/><path d="m354.888 332.828c21.023 16.346 41.771 32.449 62.092 48.16 2.847 2.201 6.414 3.317 10.148 3.177 9.264-.357 17.197-8.176 17.652-17.417 2.026-41.916 3.097-83.832 3.211-125.748-30.831 30.063-62.11 60.859-93.103 91.828z" fill="url(#SVGID_3_)"/><path d="m430.681 203.367c-3.815-.03-7.509 1.195-10.502 3.478-21.364 16.306-42.907 32.881-64.475 49.577-10.296 12.766-20.617 25.578-30.922 38.411 10.123 12.723 20.172 25.396 30.105 37.995 50.314-.851 92.882-42.329 93.102-91.828.019-6.916.012-13.832-.022-20.748-.044-9.245-7.814-16.808-17.286-16.885z" fill="url(#SVGID_4_)"/><path d="m430.681 203.367c-3.815-.03-7.509 1.195-10.502 3.478-21.364 16.306-42.907 32.881-64.475 49.577-10.296 12.766-20.617 25.578-30.922 38.411 10.123 12.723 20.172 25.396 30.105 37.995 21.023 16.346 41.771 32.449 62.092 48.16 2.847 2.201 6.414 3.317 10.148 3.177 9.264-.357 17.197-8.176 17.652-17.417 2.361-48.832 3.424-97.664 3.189-146.496-.045-9.245-7.815-16.808-17.287-16.885z" fill="url(#SVGID_5_)"/><path d="m324.997 225.833c-10.229 22.994-20.56 46.051-30.855 69.125 10.132 23.02 20.137 45.993 29.876 68.875 16.686-.206 30.557-14.14 30.871-31.005.442-25.469.714-50.938.816-76.406.069-16.869-13.73-30.568-30.708-30.589z" fill="url(#SVGID_6_)"/><path d="m324.997 225.833c-10.229 22.994-20.56 46.051-30.855 69.125 10.132 23.02 20.137 45.993 29.876 68.875 16.686-.206 30.557-14.14 30.871-31.005.442-25.469.714-50.938.816-76.406.069-16.869-13.73-30.568-30.708-30.589z" fill="url(#SVGID_7_)"/><path d="m109.963 195.714c-16.95.171-30.905 13.742-30.953 30.286-.122 45 .857 90 2.939 135 .791 16.542 15.015 30.578 31.551 31.203 20 .729 40 1.313 60 1.75-1.857-66.219-2.565-132.438-2.122-198.656-20.472.105-40.944.244-61.415.417z" fill="url(#SVGID_8_)"/><path d="m294.207 195.089c-10.236-.018-20.472-.026-30.707-.026v199.875c10 0 20-.036 30-.109 16.538-.126 30.235-14.063 30.517-30.995.694-46 1.02-92 .98-138-.019-16.929-13.839-30.709-30.79-30.745z" fill="url(#SVGID_9_)"/><path d="m293.758 364.099c.096-12.803.179-25.608.247-38.411-14.486-16.585-29.123-33.246-43.808-49.911 14.65-16.644 29.368-33.318 44.051-49.959-.012-16.963-13.797-30.752-30.748-30.755-30.707 0-61.415.078-92.122.234-16.95.101-30.838 13.818-30.871 30.599-.082 45.625.571 91.25 1.959 136.875.537 16.779 14.497 30.806 31.034 31.183 30 .656 60 .984 90 .984 16.538-.006 30.104-13.872 30.258-30.839z" fill="url(#SVGID_10_)"/><path d="m110.974 324.188c10.168.208 20.337.396 30.505.563 19.901-19.944 40.166-40.195 60.575-60.583-30.686 10.139-61.3 20.132-91.76 29.791.182 10.076.408 20.151.68 30.229z" fill="url(#SVGID_11_)"/><path d="m109.758 225.942c-.051 22.672.128 45.344.536 68.016 10.214.139 20.427.264 30.641.375 10.05-11.295 20.188-22.667 30.377-34.091-10.297-11.498-20.577-22.954-30.806-34.347-10.249.015-20.498.03-30.748.047z" fill="url(#SVGID_12_)"/><path d="m217.416 264.203c-25.575 10.182-51.091 20.269-76.48 30.13.145 10.14.327 20.277.544 30.417 50.842.833 101.684 1.146 152.526.938.054-10.244.1-20.486.136-30.729-25.499-10.174-51.097-20.47-76.726-30.756z" fill="url(#SVGID_13_)"/><path d="m171.255 225.859c-10.249.011-20.499.022-30.748.036-.041 22.813.102 45.625.429 68.438 33.195.361 66.389.576 99.584.644-23.043-23.101-46.234-46.219-69.265-69.118z" fill="url(#SVGID_14_)"/><path d="m171.255 225.859c-.024 37.908 31.256 68.993 69.264 69.117 17.874.036 35.748.03 53.622-.019.082-23.047.117-46.094.107-69.141-40.997-.012-81.995.001-122.993.043z" fill="url(#SVGID_15_)"/><path d="m202.575 133.833c.285-33.898-26.055-61.04-59.075-60.021-33.005 1.052-61.513 29.162-62.776 62.188-1.228 33.033 26.013 59.618 59.946 59.479 33.948-.186 61.555-27.738 61.905-61.646z" fill="url(#SVGID_16_)"/><path d="m172.112 134.172c.27-16.894-12.958-30.348-29.646-29.942-16.685.412-30.771 14.354-31.279 31.025-.505 16.675 12.947 29.996 29.864 29.808 16.92-.191 30.782-14 31.061-30.891z" fill="url(#SVGID_17_)"/><path d="m148.959 149.743c-16.882.214-30.259-13.087-29.704-29.793.059-1.857.295-3.669.673-5.44-5.191 5.529-8.509 12.817-8.741 20.745-.505 16.675 12.947 29.996 29.864 29.808 15.041-.176 27.666-11.103 30.471-25.406-5.668 6.098-13.704 9.959-22.563 10.086z" fill="url(#SVGID_18_)"/><path d="m324.425 133.833c-.489-33.832-27.913-61.758-60.925-61.771-33.013.015-60.436 27.942-60.925 61.771-.439 33.839 26.985 61.206 60.925 61.229 33.94-.021 61.364-27.388 60.925-61.229z" fill="url(#SVGID_19_)"/><path d="m293.963 133.63c-.119-16.965-13.776-30.816-30.463-30.817-16.687.002-30.343 13.855-30.463 30.817-.113 16.967 13.544 30.68 30.463 30.683 16.919-.002 30.575-13.716 30.463-30.683z" fill="url(#SVGID_20_)"/><path d="m271.136 148.941c-16.884-.021-30.514-13.734-30.412-30.71.009-1.883.195-3.722.524-5.511-5.038 5.504-8.164 12.852-8.211 20.91-.113 16.967 13.544 30.68 30.463 30.683 15.039 0 27.503-10.848 29.995-25.176-5.536 6.036-13.501 9.813-22.359 9.804z" fill="url(#SVGID_21_)"/></g></svg>