<?xml version="1.0" encoding="iso-8859-1"?>
<!-- Generator: Adobe Illustrator 19.0.0, SVG Export Plug-In . SVG Version: 6.00 Build 0)  -->
<svg version="1.1" id="Capa_12" xmlns="http://www.w3.org/2000/svg" xmlns:xlink="http://www.w3.org/1999/xlink" x="0px" y="0px"
	 viewBox="0 0 512 512" style="enable-background:new 0 0 512 512;" xml:space="preserve">
<path style="fill:#FD6B82;" d="M473.465,122.489l-210-120.5c-4.623-2.652-10.308-2.652-14.931,0l-210,120.5
	C33.874,125.164,31,130.127,31,135.5v241c0,5.373,2.874,10.336,7.535,13.011l210,120.5c2.312,1.326,4.889,1.989,7.465,1.989
	s5.154-0.663,7.465-1.989l210-120.5c4.661-2.675,7.535-7.638,7.535-13.011v-241C481,130.127,478.126,125.164,473.465,122.489z"/>
<path style="fill:#FC495C;" d="M473.465,122.489l-210-120.5C261.154,0.663,258.577,0,256,0v512c2.577,0,5.154-0.663,7.465-1.989
	l210-120.5c4.661-2.675,7.535-7.638,7.535-13.011v-241C481,130.127,478.126,125.164,473.465,122.489z"/>
<g>
	<path style="fill:#F9F9F9;" d="M348.54,224.485l-81.225-93.333C264.466,127.879,260.339,126,256,126s-8.466,1.879-11.315,5.152
		l-81.225,93.333c-3.859,4.435-4.772,10.715-2.336,16.064c2.437,5.35,7.773,8.783,13.651,8.783H206V321c0,8.284,6.716,15,15,15h70
		c8.284,0,15-6.716,15-15v-71.667h31.225c5.878,0,11.215-3.434,13.651-8.783C353.313,235.2,352.399,228.92,348.54,224.485z"/>
	<path style="fill:#F9F9F9;" d="M291,386h-70c-8.284,0-15-6.716-15-15s6.716-15,15-15h70c8.284,0,15,6.716,15,15
		S299.284,386,291,386z"/>
</g>
<g>
	<path style="fill:#DFE4EA;" d="M348.54,224.485l-81.225-93.333C264.466,127.879,260.339,126,256,126v210h35c8.284,0,15-6.716,15-15
		v-71.667h31.225c5.878,0,11.215-3.434,13.651-8.783C353.313,235.2,352.399,228.92,348.54,224.485z"/>
	<path style="fill:#DFE4EA;" d="M291,356h-35v30h35c8.284,0,15-6.716,15-15S299.284,356,291,356z"/>
</g>
<g>
</g>
<g>
</g>
<g>
</g>
<g>
</g>
<g>
</g>
<g>
</g>
<g>
</g>
<g>
</g>
<g>
</g>
<g>
</g>
<g>
</g>
<g>
</g>
<g>
</g>
<g>
</g>
<g>
</g>
</svg>
