<svg id="9" enable-background="new 0 0 510.68 510.68" height="512" viewBox="0 0 510.68 510.68" width="512" xmlns="http://www.w3.org/2000/svg"><g><g><path d="m313.443 6.649-128.54 3.204c-25.983 7.452-50.267 18.923-72.136 33.697-67.83 45.825-87.427 123.43-87.427 211.45 0 140.833 89.167 234 230 234 100.974 0 188.241-37.689 229.549-122.817 16.306-33.603 25.451-71.325 25.451-111.183 0-120.844-84.06-222.056-196.897-248.351z" fill="#dd5790"/><path d="m342.532 409.597c-140.833 0-255-114.167-255-255 0-39.863 9.154-77.584 25.464-111.189-67.956 45.805-112.656 123.475-112.656 211.592 0 140.833 114.167 255 255 255 38.388 0 74.795-8.483 107.449-23.677l116.181-108.696c2.065-3.758 4.038-7.574 5.917-11.445-40.657 27.408-89.634 43.415-142.355 43.415z" fill="#d80a61"/></g><g><path d="m437.054 255.657c0 105.669-74.387 180.281-180.056 180.281s-172.947-75.276-172.947-180.944c0-65.639 14.669-123.558 65.039-158.02 30.718-21.017 67.877-33.31 107.907-33.31 52.834 0 100.667 21.415 135.291 56.039s44.766 83.119 44.766 135.954z" fill="#75cef9"/><path d="m281.893 224.461v31.242c0 10.755-8.63 19.857-19.383 19.687-7.609-.12-13.761 6.255-13.27 13.943.43 6.739 6.653 12.225 13.406 12.225h11.398c4.399 0 7.763 3.613 7.851 8.011.085 4.262 3.567 7.691 7.849 7.691 14.23 0 25.765 11.536 25.765 25.765.004.426.008.847.012 1.264.249 27.791-25.879 48.308-52.809 41.44-15.528-3.96-30.366-9.836-44.23-17.418-17.322-9.473-28.279-27.472-28.781-47.208 0-.005 0-.008 0-.008-.292-4.621-4.229-8.145-8.834-7.946-4.752.205-8.88-3.179-9.18-7.926l-2.536-40.144c-.364-5.766-5.288-10.386-11.047-9.932-5.896.465-11.009-3.988-11.381-9.868l-.094-1.48c-.368-5.825 4.055-10.845 9.88-11.213l17.361-1.097c12.507-.79 22.699-10.337 24.304-22.766l4.744-36.734c.297-2.296 2.179-4.059 4.49-4.204l.424-.027c9.64-.606 17.33-8.69 16.94-18.341-.401-9.927-8.881-17.531-18.743-16.909-2.71.171-4.958-1.815-5.13-4.525-.746-11.757-10.881-20.686-22.639-19.943 0 0-78.507 26.652-87.23 145.87-4.268 58.333 4.524 117.347 47.39 151.245 6.124 4.842 12.551 9.318 19.248 13.394 52.881 32.186 117.328 36.076 172.341 13.333 7.278-3.009 16.302-19.298 23.301-23.279 0 0 26.849-6.205 38.959-18.311 28.569-28.56 48.15-66.11 54.132-108.044 6.33-44.37-164.508-71.234-164.508-57.787z" fill="#707dd3"/><path d="m263.873 238.167c14.485 16.275 24.908 35.373 34.944 54.592 9.622 18.426 20.739 36.801 26.933 56.756.812 2.614 4.067 15.641 4.417 16.276 1.021.695 1.567 1.451 1.773 1.96.198.226.387.432.57.621 9.476 6.628 22.648 10.853 33.744 13.941h26.021v-1.737c0-4.328 3.555-7.638 7.882-7.724 4.193-.084 7.567-3.509 7.567-7.723v-48.081c0-16.562 13.426-29.987 29.988-29.987 2.813 0 5.531-.396 8.113-1.12.063-.735 2.504-13.6 2.504-30.947 0-52.022-20.771-99.185-54.461-133.674-.001-.001-.001-.001-.002-.002h-61.346c-9.939 0-17.976 8.116-17.882 18.024.051 6.595-5.108 12.036-11.704 12.036h-2.548c-5.067 0-9.382 4.054-9.303 9.12.081 5.186-4.099 9.416-9.267 9.416-7.335-.001-18.094 9.061-17.943 68.253z" fill="#95d6a4"/><g><path d="m392.485 378.27c-10.702 6.014-23.874-2.017-23.616-14.29.103-4.898.359-10.338.023-16.776 0-9.881-7.975-17.899-17.84-17.968-9.952-.069-18.096-8.016-18.096-17.969v-42.059c0-14.23-11.536-25.765-25.765-25.765-4.283 0-7.765-3.429-7.85-7.691-.088-4.398-3.452-8.011-7.85-8.011h-11.399c-6.752 0-12.975-5.487-13.406-12.225-.491-7.687 5.66-14.063 13.27-13.943 10.753.17 19.383-8.932 19.383-19.687v-30.446c-4.599.512-8.33 4.345-8.256 9.057.081 5.186-4.099 9.416-9.267 9.416-13.447 0-24.349 10.901-24.349 24.349v31.242c0 10.755-8.63 19.857-19.383 19.687-7.609-.12-13.761 6.255-13.27 13.943.43 6.739 6.653 12.225 13.406 12.225h11.398c4.399 0 7.763 3.613 7.851 8.011.085 4.262 3.567 7.691 7.849 7.691 14.23 0 25.765 11.536 25.765 25.765v42.059c0 9.952 8.144 17.899 18.096 17.969 9.865.069 17.84 8.087 17.84 17.968v22.876c0 6.378 1.837 12.324 5.001 17.351 22.188-9.467 42.464-23.038 60.253-40.749.113-9.18-.277-10.13.392-12.131-.059.033-.119.067-.18.101z" fill="#78c2a4"/></g><path d="m157.784 341.604c.189-.27.393-.539.629-.807 1.422-1.614 3.455-2.691 5.767-2.855 4.675-.332 8.311-4.159 8.015-8.837l-1.344-21.27c-.3-4.747-4.428-8.131-9.18-7.926-4.605.199-8.543-3.325-8.834-7.946l-2.536-40.142c-.364-5.766-5.288-10.386-11.047-9.932-5.896.465-11.009-3.988-11.381-9.868l-.094-1.48c-.368-5.825 4.055-10.845 9.88-11.213l17.361-1.097c12.507-.79 22.699-10.337 24.304-22.766l4.744-36.734c.297-2.296 2.179-4.059 4.49-4.204l.425-.027c9.64-.606 17.33-8.69 16.94-18.341-.401-9.927-8.882-17.531-18.744-16.909-2.71.171-4.958-1.815-5.13-4.525-.746-11.758-10.881-20.686-22.639-19.943l-7.766.49c-11.669 7.713-24.715 14.887-32.136 26.681-21.241 33.761-27.094 101.759-27.559 153.338-.329 36.547 29.287 66.313 65.835 66.313z" fill="#78c2a4"/><g><path d="m159.594 339.69c-35.694-34.756-57.871-83.327-57.871-137.083 0-28.816 6.384-56.137 17.795-80.643-33.328 34.429-53.851 81.326-53.851 133.03 0 61.07 28.613 115.457 73.163 150.488l-2.277-36.041c-.296-4.679 3.258-8.712 7.937-9.007l4.15-.262c4.679-.296 8.232-4.328 7.937-9.007l-.266-4.22c-.185-2.921 1.13-5.59 3.283-7.255z" fill="#66b394"/></g></g><g><path d="m160.344 313.08-101.92 101.92-26.629-26.629 101.92-101.92c7.353-7.353 19.275-7.353 26.629 0 7.353 7.354 7.353 19.276 0 26.629z" fill="#eebd84"/><path d="m241.58 374.967c-.914-2.46-2.359-4.768-4.337-6.745-6.632-6.632-17.081-7.385-24.442-2.055l18.346-35.525c-.906-1.965-2.169-3.807-3.789-5.426-6.632-6.632-17.003-7.302-24.364-1.971l12.397-29.502c-.911-2.026-2.198-3.923-3.862-5.587-7.353-7.353-19.275-7.353-26.629 0l-12.608 12.608c.239-.329.465-.665.68-1.006l1.029-18.209c-.892-1.848-2.105-3.581-3.64-5.115-7.353-7.353-19.275-7.353-26.629 0l-42.959 42.959-32.561 32.561v-18.314c0-20.798-16.86-37.658-37.658-37.658l-.411 95.22 50.075 53.29c24.532 26.107 65.539 27.51 91.799 3.142l50.516-46.878c5.379-5.378 21.532-19.1 19.047-25.789z" fill="#eebd84"/><g fill="#e7955e"><path d="m241.563 374.974-70.104 70.104c-24.182 24.124-63.334 24.101-87.487-.052l-53.827-53.825c-9.44 12.723-14.328 27.752-14.668 42.871-.444 19.737 6.843 39.615 21.905 54.677 29.243 29.243 76.725 29.238 105.963 0 10.509-10.509 83.226-83.226 93.899-93.899 5.133-5.133 6.905-12.912 4.319-19.876z"/><path d="m231.127 330.652-67.973 67.973c-4.747 4.747-4.747 12.443 0 17.19l64.844-64.844c.544-.544 1.037-1.117 1.5-1.707 3.846-5.525 4.385-12.635 1.629-18.612z"/><path d="m215.373 293.752-78.617 77.969c-4.747 4.747-4.747 12.443 0 17.19l74.775-74.126c5.688-5.69 6.955-14.106 3.842-21.033z"/><path d="m111.388 361.39 61.614-61.614c3.516-5.517 3.868-12.452 1.072-18.262l-62.686 62.686c-4.747 4.747-4.747 12.443 0 17.19z"/></g></g><g><path d="m339.147 304.006 101.92 101.92 26.629-26.629-101.92-101.92c-7.353-7.353-19.275-7.353-26.629 0-7.354 7.354-7.354 19.276 0 26.629z" fill="#935a40"/><path d="m446.573 336.257-5.278 93.21c14.616-15.574 27.293-32.986 37.659-51.85v-80.693c-3.368 0-6.633.442-9.739 1.271-16.078 4.293-22.642 20.632-22.642 38.062z" fill="#935a40"/><path d="m441.295 334.583v94.884c5.018-5.347 9.809-10.909 14.356-16.674v-85.652c0-11.633 5.277-22.031 13.565-28.938-16.077 4.292-27.921 18.95-27.921 36.38z" fill="#6b3e2d"/><g fill="#935a40"><path d="m297.979 315.728 101.92 101.92 26.629-26.629-101.92-101.919c-7.353-7.353-19.275-7.353-26.629 0-7.353 7.353-7.353 19.275 0 26.628z"/><path d="m282.15 352.789 101.92 101.92 26.629-26.629-101.92-101.92c-7.353-7.353-19.275-7.353-26.629 0-7.354 7.354-7.354 19.276 0 26.629z"/><path d="m272.266 395.795 86.362 86.362 26.629-26.629-86.362-86.362c-7.353-7.353-19.275-7.353-26.629 0-7.354 7.353-7.354 19.275 0 26.629z"/><path d="m474.195 385.905c-.677-.732-1.356-1.463-2.067-2.174l-63.394-63.394-98.668 98.668 68.434 59.319c39.476-21.821 72.548-53.803 95.695-92.419z"/></g><path d="m372.967 473.606c-.144-.142-.287-.284-.43-.427l-7.537-7.536-86.362-86.362c-3.094-3.094-4.87-6.999-5.36-11.031-.343.297-.688.59-1.013.916-7.353 7.353-7.353 19.275 0 26.629l86.362 86.362 4.156 4.156c5.342-2.486 10.584-5.152 15.718-7.989-1.925-1.425-3.778-2.99-5.534-4.718z" fill="#6b3e2d"/><path d="m278.382 331.596 67.973 67.973c4.747 4.747 4.747 12.443 0 17.19l-64.844-64.844c-.544-.544-1.037-1.117-1.5-1.707-3.846-5.525-4.385-12.634-1.629-18.612z" fill="#6b3e2d"/><path d="m294.137 294.696 78.617 77.969c4.747 4.747 4.747 12.443 0 17.19l-74.775-74.126c-5.689-5.69-6.956-14.106-3.842-21.033z" fill="#6b3e2d"/><path d="m398.121 362.334-61.614-61.614c-3.516-5.517-3.868-12.452-1.072-18.262l62.687 62.687c4.746 4.746 4.746 12.442-.001 17.189z" fill="#6b3e2d"/></g><g><path d="m212.865 182.95v-144.137h-37.659v144.137c0 10.399 8.43 18.829 18.829 18.829 10.4 0 18.83-8.43 18.83-18.829z" fill="#eebd84"/><g fill="#dc866f"><path d="m186.456 52.982v161.365c2.321 1.023 4.881 1.601 7.58 1.601 10.399 0 18.829-8.43 18.829-18.829v-144.137z"/><path d="m250.264 217.939v-144.137h-37.659v144.136c0 10.399 8.43 18.829 18.829 18.829 10.4.001 18.83-8.429 18.83-18.828z"/><path d="m287.663 202.926v-144.136h-37.659v144.136c0 10.399 8.43 18.829 18.829 18.829 10.4 0 18.83-8.43 18.83-18.829z"/><path d="m325.061 179.505v-122.134h-37.659v122.134c0 10.399 8.43 18.829 18.829 18.829 10.4.001 18.83-8.429 18.83-18.829z"/><path d="m325.061 94.201v-47.489c0-14.737-4.272-28.469-11.62-40.057-18.664-4.35-38.113-6.655-58.101-6.655-7.335 0-14.596.311-21.773.919-10.283.872-26.18 53.851-36.617 93.282z"/></g></g><path d="m227.863 54.953v-25.304c0-10.175 2.03-19.876 5.705-28.721-16.727 1.415-32.995 4.439-48.646 8.927-4.542 8.023-7.661 16.957-8.981 26.472l-30.639 30.639-36.302 36.301c14.707 14.707 38.551 14.707 53.257 0l12.95-12.95v35.598 10.45 60.753c0 8.217 5.273 15.186 12.612 17.757v-84.723c0-7.062 5.725-12.787 12.787-12.787h12v100.574c0 8.217 5.273 15.186 12.612 17.757v-105.545c0-7.062 5.725-12.787 12.787-12.787h12.26v88.551c1.117 6.98 6.053 12.673 12.612 14.862v-90.626c0-7.062 5.725-12.787 12.787-12.787h12v65.131c1.117 6.98 6.054 12.673 12.612 14.861v-67.206c0-7.062 5.725-12.787 12.787-12.787h12v-24.749h-59.538c-20.801 0-37.662-16.861-37.662-37.661z" fill="#c66452"/></g></svg>