<svg id="Capa_10" enable-background="new 0 0 510 510" height="512" viewBox="0 0 510 510" width="512" xmlns="http://www.w3.org/2000/svg" xmlns:xlink="http://www.w3.org/1999/xlink"><linearGradient id="SVGID_1_" gradientUnits="userSpaceOnUse" x1="125.695" x2="392.303" y1="125.695" y2="392.303"><stop offset="0" stop-color="#ff637b"/><stop offset="1" stop-color="#f90217"/></linearGradient><linearGradient id="lg1"><stop offset="0" stop-color="#f90217" stop-opacity="0"/><stop offset=".2669" stop-color="#e7010f" stop-opacity=".267"/><stop offset=".7232" stop-color="#ce0004" stop-opacity=".723"/><stop offset="1" stop-color="#c50000"/></linearGradient><linearGradient id="SVGID_2_" gradientUnits="userSpaceOnUse" x1="255" x2="255" xlink:href="#lg1" y1="362" y2="465.078"/><linearGradient id="SVGID_3_" gradientUnits="userSpaceOnUse" x1="389.216" x2="291.556" xlink:href="#lg1" y1="425.826" y2="289.302"/><linearGradient id="SVGID_4_" gradientUnits="userSpaceOnUse" x1="225.813" x2="284.822" y1="244.322" y2="303.331"><stop offset="0" stop-color="#ebeff0"/><stop offset="1" stop-color="#e3e5e4"/></linearGradient><g><g><path d="m486.851 106.657c-6.973-22.264-25.135-39.239-47.871-44.472-122.185-28.124-245.779-28.124-367.962 0-22.736 5.233-40.897 22.208-47.87 44.472-30.868 98.556-30.863 198.142.001 296.687 6.973 22.264 25.135 39.239 47.87 44.472 122.183 28.124 245.776 28.124 367.961 0 22.735-5.233 40.897-22.208 47.87-44.472 30.865-98.546 30.868-198.13.001-296.687z" fill="url(#SVGID_1_)"/><path d="m2.508 303.736c3.402 33.267 10.271 66.496 20.641 99.607 6.973 22.263 25.135 39.239 47.87 44.472 122.183 28.124 245.776 28.124 367.961 0 22.735-5.233 40.897-22.208 47.87-44.472 10.37-33.111 17.239-66.34 20.641-99.607z" fill="url(#SVGID_2_)"/></g><path d="m438.981 447.815c22.735-5.233 40.897-22.208 47.87-44.472 3.744-11.956 7.025-23.927 9.861-35.91l-127.458-127.458c-1.995-2.934-4.63-5.547-7.927-7.614l-135.986-83.288c-17.797-11.162-38.921-.371-38.921 20.637v170.579c0 9.496 2.731 17.303 9.554 21.988l105.3 105.3c46.001-2.643 91.953-9.23 137.707-19.762z" fill="url(#SVGID_3_)"/><path d="m361.327 232.361-135.986-85.289c-17.797-11.162-40.922 1.631-40.922 22.639v170.579c0 21.008 23.125 33.801 40.922 22.639l135.986-85.289c16.699-10.475 16.699-34.805 0-45.279z" fill="url(#SVGID_4_)"/></g></svg>